<svg width="64" height="64" viewBox="0 0 150 155" xmlns="http://www.w3.org/2000/svg">
<g transform="translate(75, 75)">
<circle cx="-55" cy="-50" r="9" fill="#512BD4" opacity="0.18"/>
<circle cx="58" cy="-40" r="12" fill="#512BD4" opacity="0.2"/>
<circle cx="-67" cy="30" r="6" fill="#7C4DFF" opacity="0.22"/>
<circle cx="73" cy="43" r="5" fill="#512BD4" opacity="0.2"/>

<rect x="-79" y="-12" width="10" height="10" rx="2" fill="#7C4DFF" opacity="0.2" transform="rotate(25 -74 -7)"/>
<rect x="61" y="-12" width="12" height="12" rx="2" fill="#512BD4" opacity="0.18" transform="rotate(-15 67 -6)"/>
<rect x="-43" y="55" width="7" height="7" rx="1.5" fill="#7C4DFF" opacity="0.2" transform="rotate(40 -39 59)"/>
<rect x="43" y="61" width="9" height="9" rx="2" fill="#512BD4" opacity="0.19" transform="rotate(-30 47 66)"/>

<circle cx="-34" cy="-67" r="4" fill="#7C4DFF" opacity="0.25"/>
<circle cx="37" cy="-64" r="3" fill="#512BD4" opacity="0.22"/>
<circle cx="-73" cy="-27" r="4" fill="#512BD4" opacity="0.16"/>
<circle cx="65" cy="20" r="4" fill="#7C4DFF" opacity="0.18"/>
<circle cx="30" cy="70" r="5" fill="#7C4DFF" opacity="0.17"/>
<circle cx="-24" cy="73" r="3" fill="#512BD4" opacity="0.2"/>

<rect x="79" y="-49" width="6" height="6" rx="1.5" fill="#7C4DFF" opacity="0.19" transform="rotate(15 82 -46)"/>
<rect x="-73" y="55" width="11" height="11" rx="2" fill="#512BD4" opacity="0.17" transform="rotate(-20 -68 61)"/>

<path d="M0,-46 A46,46 0 1,1 0,46 A46,46 0 1,1 0,-46 Z" fill="none" stroke="#512BD4" stroke-width="11"/>
<line x1="18" y1="28" x2="46" y2="58" stroke="#512BD4" stroke-width="11" stroke-linecap="round"/>

<circle cx="46" cy="58" r="3" fill="#ffffff"/>
</g>
</svg>
